<svg width="194" height="194" viewBox="0 0 194 194" fill="none" xmlns="http://www.w3.org/2000/svg">
<path d="M96.5275 191.112C44.2897 191.112 1.94253 148.765 1.94253 96.5275C1.94253 44.2897 44.2897 1.94253 96.5275 1.94253C148.765 1.94253 191.112 44.2897 191.112 96.5275C191.112 148.765 148.765 191.112 96.5275 191.112Z" stroke="url(#paint0_linear_1198_272139)" stroke-width="3.88506"/>
<path d="M10.4 96.5275C10.4 48.9606 48.9606 10.4 96.5275 10.4V10.4C144.094 10.4 182.655 48.9606 182.655 96.5275V96.5275C182.655 144.094 144.094 182.655 96.5275 182.655V182.655C48.9606 182.655 10.4 144.094 10.4 96.5275V96.5275Z" fill="#007CF5"/>
<path d="M133.13 48.7014H60.6284C58.2248 48.7014 55.9197 49.6715 54.2201 51.3982C52.5205 53.125 51.5657 55.4669 51.5657 57.9089V83.6896C51.5657 108.683 63.4922 123.843 73.4975 132.162C84.2413 141.089 94.9943 144.132 95.4474 144.265C96.3852 144.523 97.3735 144.523 98.3112 144.265C98.7644 144.136 109.517 141.089 120.261 132.162C130.266 123.843 142.193 108.683 142.193 83.6896V57.9089C142.193 55.4669 141.238 53.125 139.539 51.3982C137.839 49.6715 135.534 48.7014 133.13 48.7014ZM62.4409 59.7503H131.318V83.6896C131.388 90.2202 130.314 96.7114 128.146 102.859L100.001 82.8472C99.0876 82.1975 97.9992 81.849 96.8838 81.849C95.7685 81.849 94.6801 82.1975 93.7663 82.8472L65.6129 102.859C63.4444 96.7114 62.3703 90.2202 62.4409 83.6896V59.7503ZM113.686 123.351C108.671 127.555 102.987 130.86 96.8793 133.124C90.7706 130.861 85.0868 127.556 80.0725 123.351C76.4351 120.31 73.2444 116.757 70.5974 112.799L96.8793 94.117L123.161 112.799C120.514 116.757 117.324 120.31 113.686 123.351Z" fill="#086CD9"/>
<path d="M74.8555 67.2015C74.8555 70.9641 71.8344 73.6007 66.8908 73.6007C61.9197 73.6007 58.8162 70.9367 58.5141 66.7621H62.7437C62.8535 68.9318 64.2542 70.3325 66.8084 70.3325C68.9232 70.3325 70.4337 69.3987 70.4337 67.8057C70.4337 66.5698 69.4724 65.8283 67.7971 65.4987L64.5563 64.867C61.5627 64.2903 59.2557 62.6699 59.2557 59.4016C59.2557 55.8862 62.3592 53.3594 66.6161 53.3594C71.0379 53.3594 74.2787 55.9411 74.5534 60.0608H70.3238C70.1865 58.0009 68.7584 56.6002 66.6711 56.6002C64.6387 56.6002 63.4852 57.7538 63.4852 59.127C63.4852 60.4727 64.7211 61.0495 66.1492 61.3241L69.5274 62.0107C72.9879 62.6973 74.8555 64.2903 74.8555 67.2015ZM85.179 73.738C79.4939 73.738 75.0996 69.3437 75.0996 63.4389C75.0996 57.534 79.4939 53.1947 85.179 53.1947C90.8916 53.1947 95.3134 57.534 95.3134 63.4389C95.3134 69.3437 90.8916 73.738 85.179 73.738ZM85.179 70.0029C88.8043 70.0029 91.0015 67.0642 91.0015 63.4389C91.0015 59.8136 88.8043 56.9298 85.179 56.9298C81.5812 56.9298 79.384 59.8136 79.384 63.4389C79.384 67.0642 81.5812 70.0029 85.179 70.0029ZM105.782 73.738C100.234 73.738 95.8946 69.2339 95.8946 63.4389C95.8946 57.6714 100.234 53.1947 105.782 53.1947C110.973 53.1947 115.037 56.6552 115.724 61.7086H111.302C110.835 58.8798 108.638 56.9298 105.837 56.9298C102.459 56.9298 100.179 59.5939 100.179 63.4389C100.179 67.3114 102.459 70.0029 105.837 70.0029C108.638 70.0029 110.808 68.0254 111.302 65.1966H115.724C115.037 70.305 110.973 73.738 105.782 73.738ZM134.339 69.9205V73.3261H121.376V71.1564L127.006 65.3889C129.148 63.1917 130.054 62.0382 130.054 60.4178C130.054 58.9073 129.038 57.8911 127.418 57.8911C125.633 57.8911 124.534 59.0171 124.534 60.8298H120.826C120.826 57.1221 123.628 54.4855 127.61 54.4855C131.318 54.4855 134.037 56.82 134.037 59.9509C134.037 62.203 133.213 63.6311 129.972 66.8994L127.171 69.9205H134.339Z" fill="white"/>
<path d="M75.588 90.8367V79.378H77.1383V90.8367H75.588ZM71.6617 80.6924V79.378H81.0646V80.6924H71.6617ZM82.1691 94.7462C82.0006 94.7462 81.8321 94.7293 81.6636 94.6956C81.5063 94.6619 81.3828 94.6338 81.2929 94.6114V93.4655H81.7479C82.0175 93.4655 82.2478 93.443 82.4388 93.3981C82.6297 93.3532 82.8039 93.2577 82.9611 93.1116C83.1184 92.9656 83.2813 92.7409 83.4498 92.4376C83.6183 92.1455 83.8093 91.7467 84.0227 91.2412L84.3261 90.5503L80.6694 81.8888H82.2702L84.6968 87.8036L85.2023 89.3033H85.0001L85.5056 87.8036L87.8648 81.8888H89.3814L85.2023 92.0163C84.9776 92.5555 84.7642 92.9993 84.562 93.3475C84.3598 93.707 84.1463 93.9879 83.9216 94.1901C83.7082 94.3923 83.461 94.5327 83.1802 94.6114C82.8993 94.7012 82.5623 94.7462 82.1691 94.7462ZM94.6615 81.6698C95.4592 81.6698 96.1388 81.8551 96.7005 82.2259C97.2734 82.5966 97.7116 83.1302 98.0149 83.8267C98.3182 84.5232 98.4699 85.3602 98.4699 86.3375C98.4699 87.8541 98.1272 89.0168 97.442 89.8257C96.7567 90.6345 95.8299 91.039 94.6615 91.039C93.628 91.039 92.8023 90.6401 92.1844 89.8425C91.5778 89.0337 91.2745 87.8653 91.2745 86.3375C91.2745 85.3939 91.4093 84.5738 91.6789 83.8773C91.9598 83.1808 92.3529 82.6415 92.8585 82.2596C93.3752 81.8664 93.9763 81.6698 94.6615 81.6698ZM94.5604 82.9505C93.774 82.9505 93.173 83.2425 92.7574 83.8267C92.3529 84.3996 92.1507 85.2366 92.1507 86.3375C92.1507 87.4272 92.3586 88.2698 92.7742 88.8652C93.2011 89.4606 93.7965 89.7583 94.5604 89.7583C95.3356 89.7583 95.9254 89.4662 96.3298 88.882C96.7454 88.2866 96.9533 87.4384 96.9533 86.3375C96.9533 85.259 96.7454 84.4277 96.3298 83.8436C95.9141 83.2482 95.3243 82.9505 94.5604 82.9505ZM92.1507 94.544H90.6678V81.8888H92.1507V94.544ZM107.387 85.5118L106.544 86.3038C106.544 85.2366 106.319 84.4109 105.87 83.8267C105.432 83.2425 104.808 82.9505 104 82.9505C103.168 82.9505 102.533 83.2482 102.095 83.8436C101.657 84.4277 101.438 85.2703 101.438 86.3712C101.438 87.4497 101.668 88.2866 102.129 88.882C102.59 89.4662 103.241 89.7583 104.084 89.7583C104.713 89.7583 105.241 89.6066 105.668 89.3033C106.106 89 106.404 88.5394 106.561 87.9215H108.111C107.864 88.9663 107.381 89.747 106.662 90.2638C105.954 90.7806 105.095 91.039 104.084 91.039C103.219 91.039 102.472 90.8536 101.843 90.4829C101.225 90.1121 100.747 89.5785 100.41 88.882C100.084 88.1743 99.9216 87.3373 99.9216 86.3712C99.9216 85.3602 100.084 84.5064 100.41 83.8099C100.747 83.1134 101.219 82.5854 101.826 82.2259C102.444 81.8551 103.168 81.6698 104 81.6698C104.842 81.6698 105.561 81.8551 106.156 82.2259C106.763 82.5966 107.229 83.1246 107.555 83.8099C107.881 84.4839 108.044 85.2984 108.044 86.2533V86.624H100.545V85.5118H107.387ZM120.774 83.0347C120.774 83.5627 120.662 84.0233 120.437 84.4165C120.224 84.7985 119.937 85.1411 119.578 85.4444C119.218 85.7365 118.825 86.0061 118.398 86.2533C117.971 86.5004 117.539 86.7532 117.101 87.0116C116.674 87.2587 116.28 87.5339 115.921 87.8373C115.561 88.1293 115.269 88.4776 115.045 88.882C114.831 89.2752 114.725 89.7414 114.725 90.2807L113.258 90.4323C113.258 89.7358 113.365 89.1404 113.579 88.6461C113.803 88.1406 114.09 87.7081 114.438 87.3486C114.798 86.9891 115.191 86.6745 115.618 86.4049C116.045 86.1353 116.471 85.8882 116.898 85.6635C117.325 85.4276 117.713 85.1916 118.061 84.9557C118.421 84.7086 118.707 84.4333 118.92 84.13C119.145 83.8267 119.257 83.4672 119.257 83.0516C119.257 82.4337 119.078 81.9506 118.718 81.6024C118.37 81.2541 117.859 81.08 117.185 81.08C116.443 81.08 115.882 81.2597 115.5 81.6192C115.118 81.9787 114.876 82.4674 114.775 83.0853H113.242C113.343 82.4 113.556 81.8158 113.882 81.3328C114.219 80.8385 114.663 80.4621 115.213 80.2037C115.775 79.9341 116.438 79.7993 117.202 79.7993C117.988 79.7993 118.645 79.9454 119.173 80.2374C119.701 80.5183 120.1 80.9003 120.37 81.3833C120.639 81.8664 120.774 82.4168 120.774 83.0347ZM113.258 90.8367V90.4323L114.421 89.6572H120.892V90.8367H113.258Z" fill="white"/>
<path d="M58.8231 125.688V116.775H60.0289V125.688H58.8231ZM66.8966 125.688V116.775H68.1024V125.688H66.8966ZM63.8821 125.688H63.0302L60.6449 119.973L59.4915 116.775H60.4876L63.2268 123.316L63.5807 124.39H63.3972L63.7642 123.316L66.4903 116.775H67.4208L66.2675 119.987L63.8821 125.688ZM72.8765 125.845C72.2124 125.845 71.6401 125.701 71.1595 125.413C70.6877 125.124 70.3251 124.709 70.0717 124.167C69.8183 123.617 69.6916 122.966 69.6916 122.215C69.6916 121.428 69.8183 120.764 70.0717 120.222C70.3338 119.681 70.7052 119.27 71.1857 118.99C71.6663 118.702 72.2299 118.558 72.8765 118.558C73.5405 118.558 74.1085 118.706 74.5803 119.004C75.0609 119.292 75.4278 119.711 75.6812 120.262C75.9346 120.803 76.0613 121.454 76.0613 122.215C76.0613 122.992 75.9302 123.652 75.6681 124.194C75.4147 124.735 75.0477 125.146 74.5672 125.426C74.0954 125.705 73.5318 125.845 72.8765 125.845ZM72.8765 124.849C73.523 124.849 74.0167 124.622 74.3575 124.167C74.707 123.713 74.8817 123.062 74.8817 122.215C74.8817 121.367 74.707 120.712 74.3575 120.249C74.0167 119.786 73.523 119.554 72.8765 119.554C72.2299 119.554 71.7318 119.786 71.3823 120.249C71.0416 120.703 70.8712 121.358 70.8712 122.215C70.8712 123.053 71.0459 123.704 71.3954 124.167C71.7449 124.622 72.2386 124.849 72.8765 124.849ZM77.5458 125.688V118.728H78.6992V125.688H77.5458ZM78.6992 121.572H78.1487C78.1924 120.908 78.3278 120.353 78.555 119.908C78.7909 119.462 79.1055 119.126 79.4986 118.899C79.8918 118.672 80.3418 118.558 80.8486 118.558C81.3466 118.558 81.7704 118.654 82.1199 118.846C82.4694 119.03 82.7359 119.305 82.9194 119.672C83.1116 120.039 83.2077 120.493 83.2077 121.035V125.688H82.0544V121.271C82.0544 120.921 81.9976 120.62 81.884 120.367C81.7792 120.104 81.6131 119.904 81.386 119.764C81.1675 119.615 80.8836 119.541 80.534 119.541C80.2457 119.541 79.988 119.602 79.7608 119.724C79.5336 119.838 79.3414 119.991 79.1841 120.183C79.0268 120.375 78.9045 120.594 78.8171 120.838C78.7385 121.074 78.6992 121.319 78.6992 121.572ZM85.0461 125.688V118.728H86.1995V125.688H85.0461ZM85.0461 117.798V116.251H86.1995V117.798H85.0461ZM88.1856 123.683V117.129H89.339V123.683C89.339 124.102 89.422 124.412 89.588 124.613C89.7627 124.814 90.1035 124.915 90.6103 124.915H90.8462V125.74C90.785 125.775 90.6845 125.801 90.5447 125.819C90.4137 125.836 90.2651 125.845 90.0991 125.845C89.4525 125.845 88.972 125.67 88.6574 125.321C88.3429 124.963 88.1856 124.416 88.1856 123.683ZM87.2157 119.646V118.728H90.8724V119.646H87.2157ZM94.8014 125.845C94.1374 125.845 93.5651 125.701 93.0845 125.413C92.6127 125.124 92.2501 124.709 91.9967 124.167C91.7433 123.617 91.6166 122.966 91.6166 122.215C91.6166 121.428 91.7433 120.764 91.9967 120.222C92.2588 119.681 92.6302 119.27 93.1107 118.99C93.5913 118.702 94.1549 118.558 94.8014 118.558C95.4655 118.558 96.0334 118.706 96.5053 119.004C96.9858 119.292 97.3528 119.711 97.6062 120.262C97.8596 120.803 97.9863 121.454 97.9863 122.215C97.9863 122.992 97.8552 123.652 97.5931 124.194C97.3397 124.735 96.9727 125.146 96.4922 125.426C96.0203 125.705 95.4568 125.845 94.8014 125.845ZM94.8014 124.849C95.448 124.849 95.9417 124.622 96.2825 124.167C96.632 123.713 96.8067 123.062 96.8067 122.215C96.8067 121.367 96.632 120.712 96.2825 120.249C95.9417 119.786 95.448 119.554 94.8014 119.554C94.1549 119.554 93.6568 119.786 93.3073 120.249C92.9665 120.703 92.7962 121.358 92.7962 122.215C92.7962 123.053 92.9709 123.704 93.3204 124.167C93.6699 124.622 94.1636 124.849 94.8014 124.849ZM99.4708 125.688V118.728H100.624V125.688H99.4708ZM100.624 121.795H100.1C100.152 121.044 100.296 120.432 100.532 119.96C100.777 119.48 101.083 119.126 101.45 118.899C101.826 118.672 102.236 118.558 102.682 118.558C102.822 118.558 102.948 118.575 103.062 118.61C103.184 118.637 103.276 118.676 103.337 118.728V119.764C103.241 119.729 103.132 119.707 103.009 119.698C102.887 119.681 102.756 119.672 102.616 119.672C102.267 119.672 101.965 119.724 101.712 119.829C101.467 119.925 101.262 120.07 101.096 120.262C100.939 120.454 100.821 120.681 100.742 120.943C100.663 121.197 100.624 121.481 100.624 121.795ZM109.684 121.546L109.029 122.162C109.029 121.332 108.854 120.69 108.505 120.236C108.164 119.781 107.679 119.554 107.05 119.554C106.403 119.554 105.91 119.786 105.569 120.249C105.228 120.703 105.058 121.358 105.058 122.215C105.058 123.053 105.237 123.704 105.595 124.167C105.953 124.622 106.46 124.849 107.115 124.849C107.605 124.849 108.015 124.731 108.347 124.495C108.688 124.259 108.92 123.901 109.042 123.42H110.248C110.056 124.233 109.68 124.84 109.121 125.242C108.57 125.644 107.902 125.845 107.115 125.845C106.443 125.845 105.862 125.701 105.372 125.413C104.892 125.124 104.52 124.709 104.258 124.167C104.005 123.617 103.878 122.966 103.878 122.215C103.878 121.428 104.005 120.764 104.258 120.222C104.52 119.681 104.887 119.27 105.359 118.99C105.84 118.702 106.403 118.558 107.05 118.558C107.705 118.558 108.264 118.702 108.728 118.99C109.199 119.279 109.562 119.689 109.815 120.222C110.069 120.747 110.195 121.38 110.195 122.123V122.411H104.363V121.546H109.684ZM114.341 125.845C113.729 125.845 113.2 125.701 112.755 125.413C112.309 125.124 111.968 124.709 111.732 124.167C111.496 123.617 111.379 122.966 111.379 122.215C111.379 121.035 111.645 120.131 112.178 119.502C112.711 118.872 113.432 118.558 114.341 118.558C115.144 118.558 115.782 118.872 116.254 119.502C116.735 120.122 116.975 121.026 116.975 122.215C116.975 122.949 116.866 123.591 116.647 124.141C116.438 124.683 116.136 125.102 115.743 125.399C115.35 125.697 114.882 125.845 114.341 125.845ZM114.419 124.849C115.031 124.849 115.494 124.626 115.808 124.181C116.132 123.726 116.293 123.071 116.293 122.215C116.293 121.367 116.127 120.712 115.795 120.249C115.472 119.786 115.013 119.554 114.419 119.554C113.816 119.554 113.353 119.786 113.03 120.249C112.715 120.703 112.558 121.358 112.558 122.215C112.558 123.053 112.72 123.704 113.043 124.167C113.375 124.622 113.834 124.849 114.419 124.849ZM116.293 125.688V116.251H117.447V125.688H116.293ZM125.014 118.558C125.634 118.558 126.163 118.702 126.6 118.99C127.045 119.279 127.386 119.694 127.622 120.236C127.858 120.777 127.976 121.428 127.976 122.188C127.976 123.368 127.709 124.272 127.176 124.901C126.643 125.531 125.923 125.845 125.014 125.845C124.21 125.845 123.568 125.535 123.087 124.915C122.615 124.285 122.38 123.377 122.38 122.188C122.38 121.454 122.484 120.817 122.694 120.275C122.913 119.733 123.218 119.314 123.612 119.017C124.013 118.711 124.481 118.558 125.014 118.558ZM124.935 119.554C124.324 119.554 123.856 119.781 123.533 120.236C123.218 120.681 123.061 121.332 123.061 122.188C123.061 123.036 123.223 123.691 123.546 124.154C123.878 124.617 124.341 124.849 124.935 124.849C125.538 124.849 125.997 124.622 126.311 124.167C126.635 123.704 126.796 123.045 126.796 122.188C126.796 121.35 126.635 120.703 126.311 120.249C125.988 119.786 125.529 119.554 124.935 119.554ZM123.061 125.688H121.908V116.251H123.061V125.688ZM129.582 128.728C129.451 128.728 129.32 128.715 129.189 128.689C129.066 128.663 128.97 128.641 128.9 128.624V127.732H129.254C129.464 127.732 129.643 127.715 129.792 127.68C129.94 127.645 130.075 127.571 130.198 127.457C130.32 127.344 130.447 127.169 130.578 126.933C130.709 126.706 130.857 126.396 131.024 126.002L131.259 125.465L128.415 118.728H129.66L131.548 123.329L131.941 124.495H131.784L132.177 123.329L134.012 118.728H135.191L131.941 126.605C131.766 127.025 131.6 127.37 131.443 127.641C131.286 127.92 131.12 128.139 130.945 128.296C130.779 128.453 130.587 128.562 130.368 128.624C130.15 128.694 129.888 128.728 129.582 128.728Z" fill="white"/>
<g clip-path="url(#clip0_1198_272139)">
<path d="M75.3735 134.884C75.3735 134.091 74.8068 133.545 74.0134 133.545C72.0248 133.545 70.0363 133.545 68.0477 133.545C66.0591 133.545 64.1735 133.586 62.2365 133.524C61.0413 133.493 60.557 134.225 60.557 135.224C60.5776 137.172 60.557 139.119 60.557 141.077C60.557 143.034 60.557 144.807 60.557 146.672C60.557 147.589 61.1031 148.227 61.8965 148.227C65.9458 148.227 69.995 148.227 74.034 148.227C74.7965 148.227 75.3632 147.661 75.3632 146.898C75.3632 142.901 75.3632 138.892 75.3632 134.895L75.3735 134.884ZM62.3601 139.129C62.7311 138.439 63.1535 137.78 63.5965 137.131C63.916 136.657 64.5342 136.554 65.0081 136.842C65.5027 137.131 65.6882 137.749 65.3997 138.264C65.0184 138.934 64.6063 139.572 64.1942 140.222C63.9984 140.531 63.6893 140.675 63.3287 140.675C62.5147 140.675 61.9789 139.851 62.3601 139.129ZM64.4517 146.187C63.5862 146.187 63.0917 145.322 63.5347 144.549C64.1632 143.478 64.833 142.416 65.4821 141.355C66.6052 139.521 67.7283 137.687 68.8513 135.853C69.1192 135.42 69.4386 135.08 69.9847 135.111C70.8296 135.163 71.2624 136.038 70.7884 136.821C69.7993 138.48 68.7792 140.119 67.7695 141.757C67.007 143.014 66.2342 144.261 65.4718 145.518C65.2348 145.909 64.936 146.177 64.4517 146.187ZM73.4776 140.222C72.9212 141.18 72.3236 142.117 71.7466 143.065C71.1078 144.096 70.4793 145.136 69.8405 146.156C69.418 146.836 68.8204 147.022 68.2537 146.661C67.7077 146.321 67.6046 145.693 67.9962 145.044C69.1914 143.096 70.3866 141.149 71.5818 139.191C71.8188 138.8 72.1279 138.532 72.6121 138.542C73.4673 138.542 73.9413 139.428 73.4879 140.211L73.4776 140.222Z" fill="white"/>
<path d="M109.979 137.409H113.173C113.925 139.995 114.677 142.561 115.43 145.137C115.471 145.137 115.512 145.137 115.553 145.137C116.305 142.561 117.058 139.995 117.799 137.419H121.004C119.726 141.067 118.459 144.663 117.212 148.248H113.76C112.503 144.652 111.246 141.067 109.969 137.409H109.979Z" fill="white"/>
<path d="M106.415 133.706H109.32V148.214H106.415V133.706Z" fill="white"/>
<path d="M93.988 139.254C93.6789 137.523 92.9165 136.029 91.4431 134.957C90.3509 134.174 89.1145 133.762 87.8059 133.721C85.8276 133.649 83.8391 133.7 81.8093 133.7V148.228C81.9226 148.249 82.005 148.27 82.0875 148.27C84.1379 148.239 86.1986 148.311 88.249 148.146C90.8764 147.94 92.6898 146.518 93.6274 144.045C94.2147 142.489 94.2868 140.872 93.9983 139.254H93.988ZM90.8352 142.716C90.4333 144.385 89.3205 145.374 87.5998 145.498C86.7137 145.56 85.8276 145.508 84.89 145.508V136.266C86.5386 136.338 88.2799 135.854 89.6606 137.101C90.186 137.574 90.5776 138.296 90.7939 138.976C91.1855 140.192 91.134 141.459 90.8352 142.716Z" fill="white"/>
<path d="M127.511 143.534H131.251C131.333 142.051 131.189 140.711 130.478 139.485C129.633 138.043 128.294 137.352 126.676 137.208C124.749 137.043 123.049 137.579 121.885 139.197C120.762 140.753 120.577 142.535 120.937 144.379C121.143 145.441 121.586 146.43 122.411 147.141C124.42 148.872 127.531 148.975 129.705 147.45C130.406 146.976 130.993 146.131 131.169 145.121C130.221 145.07 129.335 145.018 128.459 144.967C127.634 146.296 126.336 146.378 125.316 146.049C124.296 145.719 123.74 144.781 123.832 143.545H127.501L127.511 143.534ZM126.316 139.423C127.511 139.475 128.469 140.516 128.345 141.659H123.853C123.853 140.351 124.945 139.362 126.316 139.423Z" fill="white"/>
<path d="M105.352 142.206C105.228 140.125 104.394 138.517 102.405 137.621C100.138 136.601 97.2122 137.404 95.8418 139.465C94.9042 140.877 94.8321 142.453 95.0073 144.05C95.1206 145.101 95.5121 146.059 96.2437 146.863C97.5934 148.347 99.345 148.635 101.22 148.47C102.519 148.357 103.662 147.832 104.517 146.812C104.909 146.338 105.197 145.709 105.228 145.153C104.301 145.101 103.415 145.05 102.56 144.998C101.777 146.399 100.2 146.482 99.1287 145.956C98.222 145.513 97.8304 144.38 98.0468 143.566H105.28C105.311 143.432 105.331 143.391 105.331 143.339C105.331 142.958 105.352 142.587 105.331 142.216L105.352 142.206ZM102.488 141.68H98.0056C97.7995 140.784 98.8299 139.589 100.046 139.455C101.303 139.321 102.601 140.362 102.488 141.68Z" fill="white"/>
</g>
<defs>
<linearGradient id="paint0_linear_1198_272139" x1="-65.0712" y1="-18.4626" x2="26.155" y2="224.239" gradientUnits="userSpaceOnUse">
<stop stop-color="#F7D14E"/>
<stop offset="0.195" stop-color="#FFF5D1"/>
<stop offset="0.37" stop-color="#F7D14E"/>
<stop offset="0.51" stop-color="#F7D14E"/>
<stop offset="0.75" stop-color="#FFF5D1"/>
<stop offset="1" stop-color="#F7D14E"/>
</linearGradient>
<clipPath id="clip0_1198_272139">
<rect width="73.0211" height="15.1874" fill="white" transform="translate(60.0205 133.432)"/>
</clipPath>
</defs>
</svg>
