<svg width="548" height="548" viewBox="0 0 548 548" fill="none" xmlns="http://www.w3.org/2000/svg">
<path fill-rule="evenodd" clip-rule="evenodd" d="M251.211 59.995C215.409 68.862 181.295 96.3988 166.49 128.381C146.7 171.126 156.076 229.126 187.897 260.811L200.307 273.167L190.77 275.57C166.712 281.63 122.518 265.998 91.5733 240.479C74.0471 226.025 69.6141 224.554 60.4641 230.137C56.1134 232.794 55.2779 246.503 56.5292 294.518C57.9904 350.559 59.0647 357.709 69.7252 382.363C89.5317 428.169 134.339 468.514 182.909 484.278C206.695 491.999 216.319 492.696 283.715 491.582C354.244 490.42 359.467 489.794 381.36 479.904C425.641 459.897 458.553 422.95 470.201 380.158C483.747 330.406 462.978 275.293 419.125 244.611C398.812 230.399 397.491 226.651 412.766 226.62C454.243 226.54 492 196.473 492 163.532C492 147.392 482.677 143.367 445.303 143.367H414.528L405.744 125.883C379.525 73.6999 312.046 44.9259 251.211 59.995ZM341.764 94.0631C392.218 123.714 406.863 183.673 373.836 225.39C370.767 229.267 368.676 232.196 367.453 234.584C367.399 234.692 367.345 234.8 367.29 234.908C365.302 238.972 365.911 241.459 368.526 244.496C369.524 245.654 370.861 246.737 372.346 247.653C375.052 249.323 378.252 250.437 380.792 250.437C391.264 250.437 424.604 280.198 437.046 300.657C451.835 324.969 452.56 362.476 438.812 392.285C433.675 403.423 425.046 414.958 414.528 425.475C399.207 440.792 379.876 453.951 361.48 460.583C340.336 468.205 331.243 468.919 269.91 467.801C206.066 466.639 200.348 465.897 178.282 455.932C114.985 427.348 77.2988 363.511 81.1473 291.377L82.4521 266.89L105.856 280.908C107.993 282.188 110.167 283.408 112.373 284.568C143.867 301.135 181.889 305.465 211.758 295.525C232.691 288.561 241.32 283.552 238.757 275.57C237.137 270.525 231.046 264.293 220.764 255.628C193.186 232.386 183.505 212.776 183.386 179.921C183.279 150.767 189.387 134.643 208.478 113.7C241.126 77.8757 299.562 69.2665 341.764 94.0631ZM317.36 149.597C312.819 155.452 309.202 164.456 318.829 172.851C329.086 181.793 342.97 177.76 346.329 164.86C351.062 146.702 331.218 136.249 317.36 149.597ZM464.855 170.519C465.644 171.749 464.989 173.814 463.361 176.301C457.781 184.825 440.768 198.3 431.288 200.046C416.092 202.842 415.334 201.942 417.174 183.32L417.87 176.301L418.775 167.16H440.739C452.819 167.16 463.669 168.671 464.855 170.519Z" fill="black"/>
<path d="M269.91 467.801C331.243 468.919 340.336 468.205 361.48 460.583C379.876 453.951 399.207 440.792 414.528 425.475C116.059 492.115 112.373 354.093 112.373 284.568C110.167 283.408 107.993 282.188 105.856 280.908L82.4521 266.89L81.1473 291.377C77.2988 363.511 114.985 427.348 178.282 455.932C200.348 465.897 206.066 466.639 269.91 467.801Z" fill="#FCCA03"/>
<path d="M380.792 250.437C378.252 250.437 375.052 249.323 372.346 247.653C412.072 281.393 470.901 359.2 414.528 425.475C425.046 414.958 433.675 403.423 438.812 392.285C452.56 362.476 451.835 324.969 437.046 300.657C424.604 280.198 391.264 250.437 380.792 250.437Z" fill="#FDFDFB"/>
<path d="M373.836 225.39C406.863 183.673 392.218 123.714 341.764 94.0631C299.562 69.2665 241.126 77.8757 208.478 113.7C211.184 111.064 222.157 106.587 244.398 109.765C344.12 66.1233 407.077 155.21 367.453 234.584C368.676 232.196 370.767 229.267 373.836 225.39Z" fill="#FDFDFB"/>
<path d="M183.386 179.921C183.505 212.776 193.186 232.386 220.764 255.628C231.046 264.293 237.137 270.525 238.757 275.57C250.734 276.862 269.91 281.858 269.91 266.89C269.91 244.611 153.172 213.058 244.398 109.765C222.157 106.587 211.184 111.064 208.478 113.7C189.387 134.643 183.279 150.767 183.386 179.921Z" fill="#FCCA03"/>
<path fill-rule="evenodd" clip-rule="evenodd" d="M211.758 295.525C181.889 305.465 143.867 301.135 112.373 284.568C112.373 354.093 116.059 492.115 414.528 425.475C470.901 359.2 412.072 281.393 372.346 247.653C370.861 246.737 369.524 245.654 368.526 244.496C365.911 241.459 365.302 238.972 367.29 234.908L367.453 234.584C407.077 155.21 344.12 66.1233 244.398 109.765C153.172 213.058 269.91 244.611 269.91 266.89C269.91 281.858 250.734 276.862 238.757 275.57C241.32 283.552 232.691 288.561 211.758 295.525ZM318.829 172.851C309.202 164.456 312.819 155.452 317.36 149.597C331.218 136.249 351.062 146.702 346.329 164.86C342.97 177.76 329.086 181.793 318.829 172.851Z" fill="#FCE302"/>
<path d="M417.174 183.32C415.334 201.942 416.092 202.842 431.288 200.046C440.768 198.3 457.781 184.825 463.361 176.301H417.87L417.174 183.32Z" fill="#FCE302"/>
<path d="M440.739 167.16H418.775L417.87 176.301H463.361C464.989 173.814 465.644 171.749 464.855 170.519C463.669 168.671 452.819 167.16 440.739 167.16Z" fill="#FDFDFB"/>
</svg>
